<svg width="378" height="102" viewBox="0 0 378 102" fill="none" xmlns="http://www.w3.org/2000/svg">
<path d="M76.6888 46.761C76.594 46.6576 76.4733 46.5541 76.344 46.4765L65.3358 39.494C64.7755 39.1406 64.0514 39.1406 63.4911 39.494L56.8275 43.7353C56.3965 44.0111 56.3965 44.6318 56.8275 44.9076L57.4741 45.3128L60.655 47.3299C61.086 47.6058 61.086 48.2351 60.655 48.5023L56.8189 50.9332C56.3879 51.2091 56.3879 51.8298 56.8189 52.1056L63.4825 56.3468C64.0342 56.7003 64.7324 56.7002 65.2927 56.3641L76.3268 49.3643C77.2578 48.7695 77.3698 47.511 76.6802 46.7524L76.6888 46.761Z" fill="#15F5B2"/>
<path d="M0.666001 49.0713C0.760825 49.1747 0.88151 49.2782 1.01081 49.3557L12.019 56.3382C12.5793 56.6917 13.3034 56.6917 13.8637 56.3382L20.5273 52.097C20.9583 51.8212 20.9583 51.2005 20.5273 50.9247L20.3031 50.7781L16.6998 48.4937C16.2688 48.2179 16.2688 47.5886 16.6998 47.3213L20.5359 44.8904C20.9669 44.6146 20.9669 43.9939 20.5359 43.718L13.8724 39.4768C13.3207 39.1234 12.6224 39.1234 12.0621 39.4596L1.01944 46.4593C0.0884382 47.0541 -0.0236262 48.3127 0.666001 49.0713Z" fill="#15F5B2"/>
<path d="M37.2421 72.3549C38.13 72.9152 39.2678 72.9152 40.1557 72.3549L59.9998 59.8209C60.4135 59.5623 60.4135 58.9589 59.9998 58.7003L52.7414 54.0798C52.5259 53.9419 52.2415 53.9419 52.0259 54.0798L39.5782 61.9157C39.0437 62.2605 38.3541 62.2605 37.811 61.9157L24.9753 54.0798C24.7598 53.9419 24.4753 53.9419 24.2598 54.0798L16.9929 58.7003C16.5791 58.9589 16.5791 59.5623 16.9929 59.8209L37.2248 72.3463L37.2421 72.3549Z" fill="white"/>
<path d="M76.4043 27.1067L39.8109 50.4075C39.1385 50.8385 38.2765 50.8385 37.6041 50.4075L0.950393 27.0894C-0.316798 26.2791 -0.316798 24.4257 0.950393 23.6154L37.561 0.323263C38.2334 -0.107754 39.0954 -0.107754 39.7678 0.323263L76.4043 23.6327C77.6714 24.443 77.6714 26.2964 76.4043 27.098V27.1067Z" fill="white"/>
<path d="M56.8362 67.4241L60.6636 69.8551C61.0946 70.1309 61.0946 70.7602 60.6636 71.0274L39.6127 84.3804C39.0524 84.7338 38.3369 84.7338 37.768 84.3804L16.674 71.0016C16.243 70.7257 16.243 70.1051 16.674 69.8292L20.51 67.3983C20.941 67.1224 20.941 66.5018 20.51 66.2259L13.8465 61.9847C13.2862 61.6227 12.5621 61.6227 12.0017 61.9847L1.01942 68.9672C-0.0408782 69.6396 -0.0408782 71.1999 1.01942 71.8722L37.7852 95.1903C38.3455 95.5437 39.061 95.5437 39.6299 95.1903L76.3526 71.8895C77.4129 71.2171 77.4129 69.6568 76.3526 68.9844L65.353 62.0106C64.7927 61.6571 64.0686 61.6571 63.5083 62.0106L56.8448 66.2518C56.4138 66.5276 56.4138 67.1483 56.8448 67.4241H56.8362Z" fill="white"/>
<path d="M99.2512 42.1309V6.13446H112.57C115.45 6.13446 117.832 6.61441 119.718 7.57431C121.603 8.53422 123.009 9.85408 123.934 11.5339C124.86 13.2138 125.323 15.0993 125.323 17.1905C125.323 19.1789 124.877 21.013 123.986 22.6928C123.095 24.3384 121.706 25.6754 119.821 26.7038C117.935 27.698 115.518 28.1951 112.57 28.1951H105.833V42.1309H99.2512ZM105.833 22.8471H112.159C114.455 22.8471 116.101 22.35 117.095 21.3558C118.124 20.3273 118.638 18.9389 118.638 17.1905C118.638 15.4078 118.124 14.0194 117.095 13.0252C116.101 11.9967 114.455 11.4825 112.159 11.4825H105.833V22.8471Z" fill="white"/>
<path d="M129.561 42.1309V5.10599H136.144V42.1309H129.561Z" fill="white"/>
<path d="M150.891 42.7479C148.697 42.7479 146.897 42.4051 145.492 41.7195C144.086 40.9995 143.041 40.0568 142.355 38.8912C141.669 37.7256 141.326 36.44 141.326 35.0344C141.326 32.6689 142.252 30.7491 144.103 29.275C145.955 27.8009 148.731 27.0638 152.434 27.0638H158.913V26.4467C158.913 24.6983 158.416 23.4127 157.422 22.59C156.428 21.7672 155.194 21.3558 153.719 21.3558C152.382 21.3558 151.217 21.6815 150.223 22.3328C149.229 22.9499 148.611 23.8755 148.371 25.1097H141.944C142.115 23.2585 142.732 21.6472 143.795 20.2759C144.892 18.9046 146.297 17.859 148.011 17.1391C149.726 16.3849 151.645 16.0078 153.771 16.0078C157.405 16.0078 160.267 16.9162 162.359 18.7332C164.45 20.5502 165.495 23.1213 165.495 26.4467V42.1309H159.89L159.273 38.017C158.519 39.3883 157.456 40.5196 156.085 41.4109C154.748 42.3023 153.017 42.7479 150.891 42.7479ZM152.382 37.6056C154.268 37.6056 155.725 36.9885 156.753 35.7544C157.816 34.5202 158.485 32.9946 158.759 31.1777H153.154C151.405 31.1777 150.154 31.5034 149.4 32.1547C148.646 32.7718 148.269 33.5431 148.269 34.4688C148.269 35.463 148.646 36.2343 149.4 36.7828C150.154 37.3313 151.148 37.6056 152.382 37.6056Z" fill="white"/>
<path d="M182.018 42.1309C179.344 42.1309 177.202 41.4795 175.591 40.1768C173.979 38.874 173.174 36.56 173.174 33.2346V22.1271H168.803V16.6248H173.174L173.945 9.78552H179.756V16.6248H186.647V22.1271H179.756V33.286C179.756 34.5202 180.013 35.3773 180.527 35.8572C181.076 36.3029 182.001 36.5257 183.304 36.5257H186.492V42.1309H182.018Z" fill="white"/>
<path d="M192.709 42.1309V22.1271H189.213V16.6248H192.709V13.6423C192.709 10.5569 193.481 8.3628 195.023 7.06008C196.6 5.75735 198.726 5.10599 201.4 5.10599H204.228V10.7111H202.428C201.297 10.7111 200.491 10.934 200.011 11.3796C199.531 11.8253 199.291 12.5795 199.291 13.6423V16.6248H204.794V22.1271H199.291V42.1309H192.709Z" fill="white"/>
<path d="M220.47 42.7479C218.002 42.7479 215.773 42.1823 213.785 41.051C211.831 39.9197 210.271 38.3598 209.105 36.3714C207.974 34.3488 207.408 32.0176 207.408 29.3778C207.408 26.7381 207.991 24.4241 209.157 22.4357C210.322 20.413 211.882 18.836 213.836 17.7047C215.825 16.5734 218.053 16.0078 220.521 16.0078C222.955 16.0078 225.149 16.5734 227.104 17.7047C229.092 18.836 230.652 20.413 231.783 22.4357C232.949 24.4241 233.531 26.7381 233.531 29.3778C233.531 32.0176 232.949 34.3488 231.783 36.3714C230.652 38.3598 229.092 39.9197 227.104 41.051C225.115 42.1823 222.904 42.7479 220.47 42.7479ZM220.47 37.0399C222.184 37.0399 223.675 36.4057 224.944 35.1373C226.212 33.8345 226.846 31.9147 226.846 29.3778C226.846 26.841 226.212 24.9383 224.944 23.6698C223.675 22.3671 222.201 21.7158 220.521 21.7158C218.773 21.7158 217.265 22.3671 215.996 23.6698C214.762 24.9383 214.145 26.841 214.145 29.3778C214.145 31.9147 214.762 33.8345 215.996 35.1373C217.265 36.4057 218.756 37.0399 220.47 37.0399Z" fill="white"/>
<path d="M238.645 42.1309V16.6248H244.508L245.125 21.4072C246.05 19.7617 247.302 18.4589 248.879 17.499C250.49 16.5048 252.375 16.0078 254.535 16.0078V22.9499H252.684C251.244 22.9499 249.958 23.1728 248.827 23.6184C247.696 24.0641 246.804 24.8354 246.153 25.9325C245.536 27.0295 245.227 28.5551 245.227 30.5092V42.1309H238.645Z" fill="white"/>
<path d="M258.263 42.1309V16.6248H264.073L264.639 20.0702C265.462 18.836 266.542 17.859 267.879 17.1391C269.25 16.3849 270.827 16.0078 272.61 16.0078C276.552 16.0078 279.346 17.5333 280.992 20.5844C281.917 19.1789 283.151 18.0647 284.694 17.2419C286.271 16.4191 287.985 16.0078 289.837 16.0078C293.162 16.0078 295.716 17.0019 297.499 18.9903C299.281 20.9787 300.173 23.8927 300.173 27.7323V42.1309H293.59V28.3494C293.59 26.1553 293.162 24.4755 292.305 23.3099C291.482 22.1443 290.196 21.5615 288.448 21.5615C286.665 21.5615 285.226 22.2129 284.129 23.5156C283.066 24.8183 282.534 26.6353 282.534 28.9665V42.1309H275.952V28.3494C275.952 26.1553 275.524 24.4755 274.667 23.3099C273.81 22.1443 272.49 21.5615 270.707 21.5615C268.959 21.5615 267.536 22.2129 266.439 23.5156C265.376 24.8183 264.845 26.6353 264.845 28.9665V42.1309H258.263Z" fill="white"/>
<path d="M99.2512 89.9013V53.9049H122.752V59.2015H105.833V69.0748H121.209V74.2172H105.833V84.6047H122.752V89.9013H99.2512Z" fill="white"/>
<path d="M128.055 89.9013V64.3953H133.866L134.38 68.7148C135.168 67.2064 136.3 66.0065 137.774 65.1152C139.282 64.2239 141.048 63.7782 143.07 63.7782C146.224 63.7782 148.676 64.7724 150.424 66.7608C152.172 68.7491 153.047 71.6631 153.047 75.5027V89.9013H146.464V76.1198C146.464 73.9258 146.019 72.2459 145.127 71.0803C144.236 69.9147 142.848 69.3319 140.962 69.3319C139.111 69.3319 137.585 69.9833 136.385 71.286C135.22 72.5887 134.637 74.4057 134.637 76.7369V89.9013H128.055Z" fill="white"/>
<path d="M169.368 82.2906C168.134 82.2906 166.986 82.1535 165.923 81.8793L164.02 83.7819C164.603 84.0905 165.392 84.3476 166.386 84.5533C167.38 84.759 168.991 84.9647 171.22 85.1704C174.613 85.4789 177.082 86.2845 178.625 87.5872C180.167 88.89 180.939 90.6898 180.939 92.9867C180.939 94.4951 180.527 95.9179 179.704 97.2549C178.882 98.6262 177.613 99.7232 175.899 100.546C174.185 101.403 171.991 101.832 169.317 101.832C165.683 101.832 162.752 101.146 160.523 99.7746C158.295 98.4376 157.181 96.4149 157.181 93.7066C157.181 91.4097 158.295 89.4214 160.523 87.7415C159.838 87.433 159.238 87.1073 158.724 86.7645C158.244 86.4217 157.815 86.0617 157.438 85.6846V84.5018L161.912 79.7709C159.924 78.0225 158.929 75.777 158.929 73.0344C158.929 71.3203 159.341 69.7605 160.163 68.3549C161.021 66.9493 162.22 65.8351 163.763 65.0124C165.306 64.1896 167.174 63.7782 169.368 63.7782C170.808 63.7782 172.145 63.9839 173.379 64.3953H183.047V68.4063L178.676 68.7148C179.362 70.0176 179.704 71.4574 179.704 73.0344C179.704 74.7485 179.293 76.3084 178.47 77.714C177.647 79.1195 176.448 80.2337 174.871 81.0565C173.328 81.8792 171.494 82.2906 169.368 82.2906ZM169.368 77.2511C170.705 77.2511 171.802 76.8912 172.659 76.1712C173.551 75.4513 173.996 74.4229 173.996 73.0858C173.996 71.7488 173.551 70.7204 172.659 70.0004C171.802 69.2805 170.705 68.9205 169.368 68.9205C167.963 68.9205 166.831 69.2805 165.974 70.0004C165.117 70.7204 164.689 71.7488 164.689 73.0858C164.689 74.4229 165.117 75.4513 165.974 76.1712C166.831 76.8912 167.963 77.2511 169.368 77.2511ZM163.197 93.0381C163.197 94.3066 163.78 95.2493 164.946 95.8664C166.146 96.5178 167.603 96.8435 169.317 96.8435C170.962 96.8435 172.299 96.5007 173.328 95.815C174.356 95.1636 174.871 94.2723 174.871 93.141C174.871 92.2154 174.528 91.444 173.842 90.8269C173.191 90.2098 171.871 89.8327 169.883 89.6956C168.477 89.5928 167.174 89.4385 165.974 89.2328C164.98 89.7813 164.26 90.3813 163.815 91.0326C163.403 91.684 163.197 92.3525 163.197 93.0381Z" fill="white"/>
<path d="M190.623 60.4357C189.424 60.4357 188.429 60.0757 187.641 59.3558C186.887 58.6359 186.51 57.7274 186.51 56.6303C186.51 55.5333 186.887 54.642 187.641 53.9563C188.429 53.2364 189.424 52.8764 190.623 52.8764C191.823 52.8764 192.8 53.2364 193.555 53.9563C194.343 54.642 194.737 55.5333 194.737 56.6303C194.737 57.7274 194.343 58.6359 193.555 59.3558C192.8 60.0757 191.823 60.4357 190.623 60.4357ZM187.332 89.9013V64.3953H193.915V89.9013H187.332Z" fill="white"/>
<path d="M200.013 89.9013V64.3953H205.824L206.339 68.7148C207.127 67.2064 208.258 66.0065 209.732 65.1152C211.241 64.2239 213.006 63.7782 215.029 63.7782C218.183 63.7782 220.634 64.7724 222.383 66.7608C224.131 68.7491 225.005 71.6631 225.005 75.5027V89.9013H218.423V76.1198C218.423 73.9258 217.977 72.2459 217.086 71.0803C216.195 69.9147 214.806 69.3319 212.921 69.3319C211.069 69.3319 209.544 69.9833 208.344 71.286C207.178 72.5887 206.596 74.4057 206.596 76.7369V89.9013H200.013Z" fill="white"/>
<path d="M242.921 90.5184C240.35 90.5184 238.07 89.9699 236.082 88.8728C234.093 87.7758 232.534 86.2331 231.402 84.2447C230.271 82.2564 229.705 79.9594 229.705 77.354C229.705 74.7143 230.254 72.3659 231.351 70.309C232.482 68.252 234.025 66.6579 235.979 65.5266C237.967 64.361 240.298 63.7782 242.972 63.7782C245.475 63.7782 247.686 64.3267 249.606 65.4237C251.526 66.5208 253.017 68.0292 254.08 69.949C255.177 71.8345 255.726 73.9429 255.726 76.2741C255.726 76.6512 255.708 77.0454 255.674 77.4568C255.674 77.8682 255.657 78.2968 255.623 78.7424H236.236C236.373 80.7308 237.059 82.2906 238.293 83.422C239.561 84.5533 241.087 85.1189 242.87 85.1189C244.207 85.1189 245.321 84.8275 246.212 84.2447C247.138 83.6276 247.823 82.8392 248.269 81.8793H254.954C254.474 83.4905 253.669 84.9647 252.537 86.3017C251.44 87.6044 250.069 88.6329 248.423 89.3871C246.812 90.1413 244.978 90.5184 242.921 90.5184ZM242.972 69.1262C241.361 69.1262 239.939 69.589 238.704 70.5147C237.47 71.406 236.682 72.7773 236.339 74.6285H249.04C248.938 72.9487 248.321 71.6117 247.189 70.6175C246.058 69.6233 244.652 69.1262 242.972 69.1262Z" fill="white"/>
<path d="M272.883 90.5184C270.312 90.5184 268.032 89.9699 266.044 88.8728C264.056 87.7758 262.496 86.2331 261.364 84.2447C260.233 82.2564 259.667 79.9594 259.667 77.354C259.667 74.7143 260.216 72.3659 261.313 70.309C262.444 68.252 263.987 66.6579 265.941 65.5266C267.929 64.361 270.261 63.7782 272.935 63.7782C275.437 63.7782 277.648 64.3267 279.568 65.4237C281.488 66.5208 282.979 68.0292 284.042 69.949C285.139 71.8345 285.688 73.9429 285.688 76.2741C285.688 76.6512 285.671 77.0454 285.636 77.4568C285.636 77.8682 285.619 78.2968 285.585 78.7424H266.198C266.335 80.7308 267.021 82.2906 268.255 83.422C269.524 84.5533 271.049 85.1189 272.832 85.1189C274.169 85.1189 275.283 84.8275 276.174 84.2447C277.1 83.6276 277.786 82.8392 278.231 81.8793H284.916C284.436 83.4905 283.631 84.9647 282.499 86.3017C281.402 87.6044 280.031 88.6329 278.386 89.3871C276.774 90.1413 274.94 90.5184 272.883 90.5184ZM272.935 69.1262C271.323 69.1262 269.901 69.589 268.667 70.5147C267.432 71.406 266.644 72.7773 266.301 74.6285H279.003C278.9 72.9487 278.283 71.6117 277.151 70.6175C276.02 69.6233 274.615 69.1262 272.935 69.1262Z" fill="white"/>
<path d="M290.452 89.9013V64.3953H296.315L296.932 69.1777C297.857 67.5321 299.109 66.2294 300.686 65.2695C302.297 64.2753 304.182 63.7782 306.342 63.7782V70.7204H304.491C303.051 70.7204 301.766 70.9432 300.634 71.3889C299.503 71.8345 298.612 72.6059 297.96 73.7029C297.343 74.8 297.035 76.3255 297.035 78.2796V89.9013H290.452Z" fill="white"/>
<path d="M313.618 60.4357C312.418 60.4357 311.424 60.0757 310.635 59.3558C309.881 58.6359 309.504 57.7274 309.504 56.6303C309.504 55.5333 309.881 54.642 310.635 53.9563C311.424 53.2364 312.418 52.8764 313.618 52.8764C314.818 52.8764 315.795 53.2364 316.549 53.9563C317.337 54.642 317.732 55.5333 317.732 56.6303C317.732 57.7274 317.337 58.6359 316.549 59.3558C315.795 60.0757 314.818 60.4357 313.618 60.4357ZM310.327 89.9013V64.3953H316.909V89.9013H310.327Z" fill="white"/>
<path d="M323.008 89.9013V64.3953H328.819L329.333 68.7148C330.121 67.2064 331.253 66.0065 332.727 65.1152C334.235 64.2239 336.001 63.7782 338.023 63.7782C341.177 63.7782 343.629 64.7724 345.377 66.7608C347.125 68.7491 348 71.6631 348 75.5027V89.9013H341.417V76.1198C341.417 73.9258 340.972 72.2459 340.08 71.0803C339.189 69.9147 337.801 69.3319 335.915 69.3319C334.064 69.3319 332.538 69.9833 331.338 71.286C330.173 72.5887 329.59 74.4057 329.59 76.7369V89.9013H323.008Z" fill="white"/>
<path d="M364.321 82.2906C363.087 82.2906 361.939 82.1535 360.876 81.8793L358.973 83.7819C359.556 84.0905 360.345 84.3476 361.339 84.5533C362.333 84.759 363.944 84.9647 366.173 85.1704C369.567 85.4789 372.035 86.2845 373.578 87.5872C375.12 88.89 375.892 90.6898 375.892 92.9867C375.892 94.4951 375.48 95.9179 374.657 97.2549C373.835 98.6262 372.566 99.7232 370.852 100.546C369.138 101.403 366.944 101.832 364.27 101.832C360.636 101.832 357.705 101.146 355.477 99.7746C353.248 98.4376 352.134 96.4149 352.134 93.7066C352.134 91.4097 353.248 89.4214 355.477 87.7415C354.791 87.433 354.191 87.1073 353.677 86.7645C353.197 86.4217 352.768 86.0617 352.391 85.6846V84.5018L356.865 79.7709C354.877 78.0225 353.882 75.777 353.882 73.0344C353.882 71.3203 354.294 69.7605 355.117 68.3549C355.974 66.9493 357.174 65.8351 358.716 65.0124C360.259 64.1896 362.127 63.7782 364.321 63.7782C365.761 63.7782 367.098 63.9839 368.332 64.3953H378V68.4063L373.629 68.7148C374.315 70.0176 374.657 71.4574 374.657 73.0344C374.657 74.7485 374.246 76.3084 373.423 77.714C372.601 79.1195 371.401 80.2337 369.824 81.0565C368.281 81.8792 366.447 82.2906 364.321 82.2906ZM364.321 77.2511C365.658 77.2511 366.755 76.8912 367.612 76.1712C368.504 75.4513 368.949 74.4229 368.949 73.0858C368.949 71.7488 368.504 70.7204 367.612 70.0004C366.755 69.2805 365.658 68.9205 364.321 68.9205C362.916 68.9205 361.784 69.2805 360.927 70.0004C360.07 70.7204 359.642 71.7488 359.642 73.0858C359.642 74.4229 360.07 75.4513 360.927 76.1712C361.784 76.8912 362.916 77.2511 364.321 77.2511ZM358.151 93.0381C358.151 94.3066 358.733 95.2493 359.899 95.8664C361.099 96.5178 362.556 96.8435 364.27 96.8435C365.915 96.8435 367.253 96.5007 368.281 95.815C369.309 95.1636 369.824 94.2723 369.824 93.141C369.824 92.2154 369.481 91.444 368.795 90.8269C368.144 90.2098 366.824 89.8327 364.836 89.6956C363.43 89.5928 362.127 89.4385 360.927 89.2328C359.933 89.7813 359.213 90.3813 358.768 91.0326C358.356 91.684 358.151 92.3525 358.151 93.0381Z" fill="white"/>
</svg>
